# xmcd CD database file
#
# Track frame offsets:
#	150
#	16722
#	38522
#	55784
#	73315
#	91844
#	110805
#	128937
#	148317
#	166181
#	180329
#	196287
#	208121
#	225042
#	240864
#	259421
#	272288
#	290378
#	304255
#
# Disc length: 4329 seconds
#
# Revision: 3
# Processed by: cddbd v1.5.2PL0 Copyright (c) Steve Scherf et al.
# Submitted via: CDex 1.51
#
DISCID=0110e713
DTITLE=Various Artist - EZH-96
DYEAR=1900
DGENRE=Blues
TTITLE0=Olly Murs Ft Flo Rida - Troublemaker
TTITLE1=Labrinth Ft Emeli Sande - Beneath Your Beautiful
TTITLE2=Girls Aloud - Something New
TTITLE3=James Arthur - Impossible
TTITLE4=Shontelle - Impossible
TTITLE5=Rihanna And Mickky Ekko - Stay
TTITLE6=Emeli Sande - Clown
TTITLE7=Bruno Mars - Locked Out Of Heaven
TTITLE8=Ke$ha - Die Young
TTITLE9=One Direction - One Way Or Another (teenage kicks)
TTITLE10=Dido - No Freedom
TTITLE11=Jake Bugg - Lightning Bolt
TTITLE12=Lawson - Learning To Love Again
TTITLE13=One Direction - Kiss You
TTITLE14=Taylor Swift - I Knew Were Trouble
TTITLE15=Lumineers The - Ho Hey
TTITLE16=PSY - Gangnam Style
TTITLE17=Bingo Players FT Far East Movement - Get Up (rattle)
TTITLE18=Rita Ora - Radioactive
EXTD=
EXTT0=
EXTT1=
EXTT2=
EXTT3=
EXTT4=
EXTT5=
EXTT6=
EXTT7=
EXTT8=
EXTT9=
EXTT10=
EXTT11=
EXTT12=
EXTT13=
EXTT14=
EXTT15=
EXTT16=
EXTT17=
EXTT18=
PLAYORDER=
